<svg width="31" height="30" viewBox="0 0 31 30" fill="none" xmlns="http://www.w3.org/2000/svg">
<mask id="mask0" mask-type="alpha" maskUnits="userSpaceOnUse" x="0" y="0" width="22" height="14">
<rect y="0.184082" width="21.5652" height="13.6364" fill="#ED1F24"/>
</mask>
<g mask="url(#mask0)">
<path fill-rule="evenodd" clip-rule="evenodd" d="M82.3457 8.13782L7.67119 8.13782C6.85661 8.13782 6.08646 8.52837 5.52367 9.19061C5.16821 9.61513 4.66466 9.86983 4.11667 9.86983C2.94664 9.86983 2.01358 8.71516 2.14687 7.33974C2.23573 6.28695 2.97626 5.45491 3.8797 5.33604C4.51655 5.26812 5.09416 5.52283 5.50886 5.99828C6.08646 6.66052 6.85661 7.05107 7.67119 7.05107L82.3457 7.05107V8.13782ZM4.11667 6.40581C3.53906 6.40581 3.07993 6.94919 3.07993 7.59445C3.07993 8.23971 3.53906 8.78308 4.11667 8.78308C4.51656 8.78308 4.85719 8.51139 5.03492 8.13782V7.05107C4.85719 6.66052 4.51656 6.40581 4.11667 6.40581Z" fill="#ED1F24"/>
</g>
<mask id="mask1" mask-type="alpha" maskUnits="userSpaceOnUse" x="9" y="1" width="23" height="15">
<rect x="31" y="15" width="21.5652" height="13.6364" transform="rotate(-180 31 15)" fill="#ED1F24"/>
</mask>
<g mask="url(#mask1)">
<path fill-rule="evenodd" clip-rule="evenodd" d="M-51.3457 7.04626L23.3288 7.04626C24.1434 7.04626 24.9135 6.65571 25.4763 5.99347C25.8318 5.56896 26.3353 5.31425 26.8833 5.31425C28.0534 5.31425 28.9864 6.46892 28.8531 7.84434C28.7643 8.89713 28.0237 9.72918 27.1203 9.84804C26.4835 9.91596 25.9058 9.66125 25.4911 9.1858C24.9135 8.52356 24.1434 8.13301 23.3288 8.13301L-51.3457 8.13301V7.04626ZM26.8833 8.77827C27.4609 8.77827 27.9201 8.23489 27.9201 7.58963C27.9201 6.94438 27.4609 6.401 26.8833 6.401C26.4834 6.401 26.1428 6.67269 25.9651 7.04626V8.13301C26.1428 8.52356 26.4834 8.77827 26.8833 8.77827Z" fill="#ED1F24"/>
</g>
<mask id="mask2" mask-type="alpha" maskUnits="userSpaceOnUse" x="0" y="15" width="22" height="14">
<rect y="15.1841" width="21.5652" height="13.6364" fill="#ED1F24"/>
</mask>
<g mask="url(#mask2)">
<path fill-rule="evenodd" clip-rule="evenodd" d="M82.3457 23.1378L7.67119 23.1378C6.85661 23.1378 6.08646 23.5284 5.52367 24.1906C5.16821 24.6151 4.66466 24.8698 4.11667 24.8698C2.94664 24.8698 2.01358 23.7152 2.14687 22.3397C2.23573 21.2869 2.97626 20.4549 3.8797 20.336C4.51655 20.2681 5.09416 20.5228 5.50886 20.9983C6.08646 21.6605 6.85661 22.0511 7.67119 22.0511L82.3457 22.0511V23.1378ZM4.11667 21.4058C3.53906 21.4058 3.07993 21.9492 3.07993 22.5944C3.07993 23.2397 3.53906 23.7831 4.11667 23.7831C4.51656 23.7831 4.85719 23.5114 5.03492 23.1378V22.0511C4.85719 21.6605 4.51656 21.4058 4.11667 21.4058Z" fill="#ED1F24"/>
</g>
<mask id="mask3" mask-type="alpha" maskUnits="userSpaceOnUse" x="9" y="16" width="23" height="15">
<rect x="31" y="30" width="21.5652" height="13.6364" transform="rotate(-180 31 30)" fill="#ED1F24"/>
</mask>
<g mask="url(#mask3)">
<path fill-rule="evenodd" clip-rule="evenodd" d="M-51.3457 22.0463L23.3288 22.0463C24.1434 22.0463 24.9135 21.6557 25.4763 20.9935C25.8318 20.569 26.3353 20.3142 26.8833 20.3142C28.0534 20.3142 28.9864 21.4689 28.8531 22.8443C28.7643 23.8971 28.0237 24.7292 27.1203 24.848C26.4835 24.916 25.9058 24.6613 25.4911 24.1858C24.9135 23.5236 24.1434 23.133 23.3288 23.133L-51.3457 23.133V22.0463ZM26.8833 23.7783C27.4609 23.7783 27.9201 23.2349 27.9201 22.5896C27.9201 21.9444 27.4609 21.401 26.8833 21.401C26.4834 21.401 26.1428 21.6727 25.9651 22.0463V23.133C26.1428 23.5236 26.4834 23.7783 26.8833 23.7783Z" fill="#ED1F24"/>
</g>
<mask id="mask4" mask-type="alpha" maskUnits="userSpaceOnUse" x="0" y="7" width="22" height="14">
<rect y="7.18408" width="21.5652" height="13.6364" fill="#ED1F24"/>
</mask>
<g mask="url(#mask4)">
<path fill-rule="evenodd" clip-rule="evenodd" d="M82.3457 15.1378L7.67119 15.1378C6.85661 15.1378 6.08646 15.5284 5.52367 16.1906C5.16821 16.6151 4.66466 16.8698 4.11667 16.8698C2.94664 16.8698 2.01358 15.7152 2.14687 14.3397C2.23573 13.2869 2.97626 12.4549 3.8797 12.336C4.51655 12.2681 5.09416 12.5228 5.50886 12.9983C6.08646 13.6605 6.85661 14.0511 7.67119 14.0511L82.3457 14.0511V15.1378ZM4.11667 13.4058C3.53906 13.4058 3.07993 13.9492 3.07993 14.5944C3.07993 15.2397 3.53906 15.7831 4.11667 15.7831C4.51656 15.7831 4.85719 15.5114 5.03492 15.1378V14.0511C4.85719 13.6605 4.51656 13.4058 4.11667 13.4058Z" fill="#ED1F24"/>
</g>
<mask id="mask5" mask-type="alpha" maskUnits="userSpaceOnUse" x="9" y="8" width="23" height="15">
<rect x="31" y="22" width="21.5652" height="13.6364" transform="rotate(-180 31 22)" fill="#ED1F24"/>
</mask>
<g mask="url(#mask5)">
<path fill-rule="evenodd" clip-rule="evenodd" d="M-51.3457 14.0463L23.3288 14.0463C24.1434 14.0463 24.9135 13.6557 25.4763 12.9935C25.8318 12.569 26.3353 12.3142 26.8833 12.3142C28.0534 12.3142 28.9864 13.4689 28.8531 14.8443C28.7643 15.8971 28.0237 16.7292 27.1203 16.848C26.4835 16.916 25.9058 16.6613 25.4911 16.1858C24.9135 15.5236 24.1434 15.133 23.3288 15.133L-51.3457 15.133V14.0463ZM26.8833 15.7783C27.4609 15.7783 27.9201 15.2349 27.9201 14.5896C27.9201 13.9444 27.4609 13.401 26.8833 13.401C26.4834 13.401 26.1428 13.6727 25.9651 14.0463V15.133C26.1428 15.5236 26.4834 15.7783 26.8833 15.7783Z" fill="#ED1F24"/>
</g>
</svg>
